<?xml version="1.0" standalone="no"?>
<!DOCTYPE svg PUBLIC "-//W3C//DTD SVG 20010904//EN"
 "http://www.w3.org/TR/2001/REC-SVG-20010904/DTD/svg10.dtd">
<svg version="1.0" xmlns="http://www.w3.org/2000/svg"
 width="1107.000000pt" height="1107.000000pt" viewBox="0 0 1107.000000 1107.000000"
 preserveAspectRatio="xMidYMid meet">
<metadata>
Created by potrace 1.11, written by Peter Selinger 2001-2013
</metadata>
<g transform="translate(0.000000,1107.000000) scale(0.100000,-0.100000)"
fill="#000000" stroke="none">
<path d="M6821 8365 c-139 -133 -308 -359 -543 -728 -95 -149 -244 -393 -288
-472 -12 -22 -53 -92 -90 -155 -37 -63 -90 -155 -118 -205 -28 -49 -100 -177
-161 -284 -61 -106 -111 -195 -111 -197 0 -3 -10 -21 -23 -42 -13 -20 -37 -62
-54 -92 -16 -30 -114 -203 -218 -385 -104 -181 -202 -355 -218 -385 -17 -30
-48 -83 -69 -118 -21 -34 -38 -64 -38 -67 0 -2 -20 -39 -45 -81 -25 -41 -45
-77 -45 -80 0 -2 -22 -41 -48 -86 -27 -46 -147 -256 -267 -468 -120 -212 -240
-422 -267 -468 -26 -45 -48 -84 -48 -86 0 -3 -19 -37 -43 -78 -188 -321 -183
-474 22 -559 63 -26 88 -31 153 -31 167 1 247 85 267 282 12 108 14 113 158
286 263 316 419 601 558 1022 20 61 38 112 40 112 2 0 65 -36 140 -80 183
-107 205 -118 234 -111 18 5 45 39 96 121 167 267 326 555 528 960 241 483
389 826 492 1145 14 44 32 100 40 125 25 78 83 311 104 420 53 268 71 516 52
695 -13 125 -29 158 -79 163 -27 3 -42 -7 -111 -73z m62 -310 c-6 -243 -71
-589 -164 -885 -32 -99 -90 -270 -114 -330 -56 -144 -77 -198 -85 -215 -17
-39 -53 -121 -85 -195 -106 -243 -340 -709 -505 -1005 -37 -66 -77 -138 -90
-160 -12 -22 -56 -98 -98 -168 -66 -109 -80 -127 -98 -123 -19 5 -82 41 -436
248 -65 38 -119 72 -122 76 -2 4 11 32 29 63 18 31 48 83 65 115 18 33 50 88
70 124 78 136 318 558 350 615 18 33 53 93 77 133 24 41 43 76 43 78 0 2 10
21 23 42 13 20 37 62 54 92 47 86 155 275 222 388 34 57 61 105 61 107 0 5
221 373 279 463 71 113 231 352 265 398 17 23 38 52 46 64 29 43 120 157 170
214 l35 39 5 -34 c4 -19 5 -83 3 -144z m-1846 -3147 c50 -47 14 -138 -55 -138
-48 0 -82 32 -82 79 0 72 84 109 137 59z m-322 -563 c56 -56 11 -153 -65 -141
-44 7 -70 38 -70 83 0 44 37 83 80 83 19 0 40 -9 55 -25z m-316 -571 c60 -76
-29 -173 -107 -118 -68 47 -35 144 48 144 30 0 43 -6 59 -26z"/>
<path d="M2210 6826 l-1415 -714 -25 -48 c-24 -46 -25 -57 -25 -219 0 -157 2
-173 22 -212 27 -50 -7 -32 958 -518 380 -191 965 -487 1302 -657 450 -227
620 -309 640 -306 47 5 57 42 61 222 4 181 -8 265 -44 313 -27 36 23 11 -1403
701 -508 246 -923 452 -922 457 0 6 515 262 1145 570 630 308 1156 571 1170
584 44 41 51 81 51 276 0 99 -3 192 -8 207 -10 37 -34 58 -65 58 -16 0 -628
-304 -1442 -714z"/>
<path d="M7413 7525 c-37 -26 -46 -78 -46 -251 1 -191 15 -259 64 -297 17 -13
545 -273 1175 -578 629 -305 1144 -556 1144 -559 0 -3 -355 -178 -788 -390
-1439 -703 -1529 -748 -1550 -775 -32 -40 -45 -125 -45 -290 1 -203 24 -258
102 -235 39 11 2810 1407 2833 1428 40 34 53 99 53 257 0 158 -13 223 -53 258
-18 16 -2812 1430 -2847 1441 -12 3 -30 -1 -42 -9z"/>
</g>
</svg>
